<svg width="396" height="396" viewBox="0 0 396 396" fill="none" xmlns="http://www.w3.org/2000/svg">
<path fill-rule="evenodd" clip-rule="evenodd" d="M264.369 362.771C259.631 362.185 255.199 360.495 251.607 357.904L133.604 272.852C133.434 272.729 133.229 272.663 133.019 272.663H72.053C66.3198 272.74 60.7827 270.96 56.6508 267.712C52.5189 264.465 50.1279 260.014 50 255.331V141.678C50.1279 136.995 52.5189 132.544 56.6508 129.297C60.7827 126.049 66.3198 124.269 72.053 124.345H131.559C131.768 124.345 131.973 124.279 132.143 124.157L251.955 37.8549C255.538 35.3629 259.911 33.7509 264.569 33.2057C269.227 32.6605 273.979 33.2043 278.274 34.7743C282.569 36.3442 286.232 38.8759 288.838 42.0763C291.444 45.2766 292.887 49.0146 293 52.8572V342.674C292.996 346.589 291.609 350.42 289.005 353.707C286.402 356.994 282.693 359.597 278.323 361.205C273.953 362.813 269.108 363.357 264.369 362.771ZM133.019 227.663H95V169.345H131.559C141.209 169.345 150.614 166.31 158.444 160.67L248 96.1625V299.833L159.916 236.346C152.084 230.701 142.674 227.663 133.019 227.663ZM314.466 154.676C341.258 177.346 341.258 218.654 314.466 241.324C304.98 249.351 303.797 263.548 311.824 273.034C319.851 282.52 334.048 283.703 343.534 275.676C391.569 235.031 391.569 160.969 343.534 120.324C334.048 112.297 319.851 113.48 311.824 122.966C303.797 132.452 304.98 146.649 314.466 154.676Z" fill="black"/>
</svg>
