<svg xmlns="http://www.w3.org/2000/svg" width="36" height="36" fill="none"><g clip-path="url(#a)"><path fill="#000" fill-rule="evenodd" d="M36.277 29.566 4.261 1.735l.058-.068-.074-.064-1.968 2.264 8.124 7.062h-1.49a1.992 1.992 0 0 0-1.335.476A1.631 1.631 0 0 0 7 12.593v10.91c.011.45.218.878.576 1.19.359.311.838.482 1.335.475h5.312l10.25 8.183c.31.249.695.41 1.106.467.41.056.83.004 1.209-.15.379-.155.7-.405.926-.72.225-.316.346-.684.346-1.06V26.28l6.308 5.483 1.91-2.197ZM16.867 8.718l2.302 2.002 5.891-4.7v9.82l3 2.608V4.066a1.827 1.827 0 0 0-.36-1.035 2.118 2.118 0 0 0-.916-.7 2.365 2.365 0 0 0-1.188-.151 2.27 2.27 0 0 0-1.093.446l-7.636 6.092Zm8.193 14.954L13.852 13.93H10v8.239h5.273l.822.655 8.965 7.158v-6.309Z" clip-rule="evenodd"/></g><defs><clipPath id="a"><path fill="#fff" d="M0 0h36v36H0z"/></clipPath></defs></svg>