<svg width="396" height="396" viewBox="0 0 396 396" fill="none" xmlns="http://www.w3.org/2000/svg">
<path fill-rule="evenodd" clip-rule="evenodd" d="M251.607 357.904C255.199 360.495 259.631 362.185 264.369 362.771C269.108 363.357 273.953 362.813 278.323 361.205C282.693 359.597 286.402 356.994 289.005 353.707C291.609 350.42 292.996 346.589 293 342.674V308.351L308.606 323.926C317.401 332.704 331.648 332.69 340.426 323.894C349.204 315.099 349.19 300.852 340.394 292.074L293 244.774V244.573L252.285 204.139L87.3942 39.5744C78.5987 30.7963 64.3525 30.8104 55.5744 39.6058C46.7963 48.4013 46.8104 62.6475 55.6058 71.4256L108.63 124.345H72.053C66.3198 124.269 60.7827 126.049 56.6508 129.297C52.5189 132.544 50.1279 136.995 50 141.678V255.331C50.1279 260.014 52.5189 264.465 56.6508 267.712C60.7827 270.96 66.3198 272.74 72.053 272.663H133.019C133.229 272.663 133.434 272.729 133.604 272.852L251.607 357.904ZM149.898 165.531C144.143 168.033 137.904 169.345 131.559 169.345H95V227.663H133.019C142.674 227.663 152.084 230.701 159.916 236.346L248 299.833V263.44L149.898 165.531ZM248 136.464L293 181.153V52.8572C292.887 49.0146 291.444 45.2766 288.838 42.0763C286.232 38.8759 282.569 36.3442 278.274 34.7743C273.979 33.2043 269.227 32.6605 264.569 33.2057C259.911 33.7509 255.538 35.3629 251.955 37.8549L192.111 80.9612L224.479 113.105L248 96.1625V136.464Z" fill="black"/>
</svg>
