<svg xmlns="http://www.w3.org/2000/svg" width="36" height="36" fill="none"><path stroke="#000" stroke-width="3.5" d="M12.096 12.68h.613l.479-.383 10.39-8.29a.529.529 0 0 1 .243-.092.615.615 0 0 1 .306.037.373.373 0 0 1 .162.116.133.133 0 0 1 .02.034l.001.006v27.779l-.002.01a.128.128 0 0 1-.018.033.37.37 0 0 1-.162.117.615.615 0 0 1-.312.037.517.517 0 0 1-.25-.1h-.002L13.314 23.8l-.478-.382H6.885a.283.283 0 0 1-.135-.03v-10.68a.283.283 0 0 1 .135-.029H12.096Z"/><path stroke="#000" stroke-linecap="round" stroke-width="3" d="M29 12.5v0c3.401 2.878 3.401 8.122 0 11v0"/></svg>