<svg xmlns="http://www.w3.org/2000/svg" width="100" height="100" fill="none"><path fill="currentColor" d="M44.322 7.295 18.166 30.359H5.134A4.728 4.728 0 0 0 .33 34.98v30.307a4.728 4.728 0 0 0 4.804 4.622h13.35l25.762 22.731a5.425 5.425 0 0 0 9.016-4.061V11.295a5.425 5.425 0 0 0-8.94-4Z"/><path fill="currentColor" fill-rule="evenodd" d="M64.65 23.073a4.001 4.001 0 0 1 1.57.01v-.01a27.52 27.52 0 0 1 0 53.93 4 4 0 0 1-.77.08 4 4 0 0 1-.77-7.92 19.52 19.52 0 0 0 0-38.23 4.001 4.001 0 0 1-.03-7.86Zm-3.225 35.073c.361-.382.794-.689 1.274-.904h.02a7.82 7.82 0 0 0 0-14.32 4 4 0 0 1 3.25-7.31 15.82 15.82 0 0 1 0 28.94 4.004 4.004 0 0 1-4.544-6.406Z" clip-rule="evenodd"/></svg>