<svg xmlns="http://www.w3.org/2000/svg" width="100" height="100" fill="none"><path fill="currentColor" d="M43.992 7.295 17.836 30.359H4.804A4.728 4.728 0 0 0 0 34.98v30.307a4.728 4.728 0 0 0 4.804 4.622h13.35l25.762 22.731a5.425 5.425 0 0 0 9.016-4.061V11.295a5.425 5.425 0 0 0-8.94-4Z"/><path fill="currentColor" fill-rule="evenodd" d="M64.828 32.828a4 4 0 1 0-5.656 5.657L70.485 49.8 59.172 61.113a4 4 0 0 0 5.657 5.657l11.313-11.314L87.456 66.77a4 4 0 0 0 5.657-5.657L81.799 49.799l11.314-11.314a4 4 0 1 0-5.657-5.657L76.142 44.142 64.828 32.828Z" clip-rule="evenodd"/></svg>