<svg xmlns="http://www.w3.org/2000/svg" width="36" height="36" fill="none"><path stroke="#000" stroke-width="3" d="M14.096 12.43h.525l.41-.328 10.394-8.293a.775.775 0 0 1 .364-.142.865.865 0 0 1 .432.054.62.62 0 0 1 .27.199.334.334 0 0 1 .069.175V31.888a.323.323 0 0 1-.066.187.615.615 0 0 1-.272.204.866.866 0 0 1-.44.053.766.766 0 0 1-.373-.153l-10.25-8.184-.41-.327H8.888a.496.496 0 0 1-.328-.107.214.214 0 0 1-.053-.066.08.08 0 0 1-.008-.023V12.625a.08.08 0 0 1 .008-.023.214.214 0 0 1 .053-.066.496.496 0 0 1 .328-.107h5.207Z"/></svg>