<svg xmlns="http://www.w3.org/2000/svg" width="36" height="36" fill="none"><path fill="#000" fill-rule="evenodd" d="M26.06 17.579V4.066a1.827 1.827 0 0 0-.36-1.035 2.118 2.118 0 0 0-.916-.7 2.365 2.365 0 0 0-1.188-.151 2.27 2.27 0 0 0-1.093.446l-7.114 5.676 2.685 2.335 4.486-3.579v7.478l3.5 3.043Zm-10.37-5.04-.053.043L22.56 18.6v-.089l3.5 3.043v.088l7.283 6.331a1.75 1.75 0 1 1-2.296 2.642L26.06 26.28v5.609c0 .375-.12.743-.346 1.059a2.114 2.114 0 0 1-.926.72 2.366 2.366 0 0 1-1.21.15 2.264 2.264 0 0 1-1.105-.467l-10.25-8.183H6.911a1.993 1.993 0 0 1-1.335-.476A1.632 1.632 0 0 1 5 23.504V12.593c.011-.45.218-.877.576-1.188a1.992 1.992 0 0 1 1.335-.476h1.49L1.598 5.015a1.75 1.75 0 1 1 2.296-2.641l9.057 7.873.053-.042 2.686 2.334Zm-3.594 1.89h.331l10.133 8.808v5.705l-8.153-6.51-.958-.764H8.5v-7.239h3.596Z" clip-rule="evenodd"/></svg>